<?xml version="1.0" encoding="utf-8"?><svg xmlns="http://www.w3.org/2000/svg" xmlns:xlink="http://www.w3.org/1999/xlink"><symbol viewBox="0 0 30 21" id="ic-burger" xmlns="http://www.w3.org/2000/svg"><path fill-rule="evenodd" d="M28.507 21.001H1.493a1.5 1.5 0 01-1.501-1.5V19.5A1.5 1.5 0 011.493 18h27.014a1.5 1.5 0 011.501 1.5v.001a1.5 1.5 0 01-1.501 1.5zm0-9.002H1.493a1.5 1.5 0 110-3h27.014a1.501 1.501 0 110 3zm0-9.001H1.493A1.5 1.5 0 01-.008 1.499v-.001a1.5 1.5 0 011.501-1.5h27.014a1.5 1.5 0 011.501 1.5v.001a1.5 1.5 0 01-1.501 1.499z"/></symbol><symbol viewBox="0 0 57 58" id="ic-consulting" xmlns="http://www.w3.org/2000/svg"><path fill-rule="evenodd" d="M30.255 27.336V.77c14.672 0 26.566 11.894 26.566 26.566H30.255zm3.501-22.76c0 9.093.041 19.218.041 19.218s11.46-.081 19.199-.081c-1.558-9.855-9.368-17.63-19.24-19.137zm19.523 26.303c0 14.672-11.894 26.565-26.566 26.565C12.04 57.444.146 45.551.146 30.879c0-14.673 11.894-26.567 26.567-26.567 0 7.093-.022 26.554-.022 26.554s19.433.013 26.588.013zM23.1 8.136C12.1 9.87 3.689 19.392 3.689 30.879c0 12.715 10.308 23.024 23.024 23.024 11.517 0 21.059-8.456 22.756-19.499-11.936 0-26.317.005-26.317.005S23.1 19.927 23.1 8.136z"/></symbol><symbol viewBox="0 0 16 16" id="ic-cross" xmlns="http://www.w3.org/2000/svg"><path fill-rule="evenodd" d="M1.763.536l5.886 5.886L13.31.762l1.503 1.502-5.661 5.661 5.937 5.937-1.604 1.603-5.936-5.937-5.661 5.661-1.503-1.503 5.661-5.661L.16 2.139 1.763.536z"/></symbol><symbol viewBox="0 0 57 58" id="ic-date" xmlns="http://www.w3.org/2000/svg"><path fill-rule="evenodd" d="M51.562 57.198H5.465a5.32 5.32 0 01-5.319-5.319V5.783A5.32 5.32 0 015.465.464h46.097a5.318 5.318 0 015.319 5.319v46.096a5.318 5.318 0 01-5.319 5.319zm1.773-49.642a3.546 3.546 0 00-3.546-3.546H7.238a3.546 3.546 0 00-3.546 3.546v1.773h49.643V7.556zm0 5.318H3.692v37.232a3.546 3.546 0 003.546 3.546h42.551a3.546 3.546 0 003.546-3.546V12.874zm-8.886 24.269c0 3.182-3.173 5.86-7.269 5.86-4.269 0-6.924-2.89-6.924-4.985 0-1.034 1.183-1.777 2.222-1.777 1.961 0 1.5 3.103 4.76 3.103 1.5 0 2.711-1.061 2.711-2.466 0-3.713-4.904-.982-4.904-4.111 0-2.785 4.096-.901 4.096-3.845 0-1.008-.779-1.777-2.077-1.777-2.74 0-2.365 2.599-4.327 2.599-1.182 0-1.875-.981-1.875-1.962 0-2.068 3.087-4.296 6.289-4.296 4.154 0 6.144 2.784 6.144 4.853 0 1.67-.779 3.129-2.365 4.057 2.077.875 3.519 2.652 3.519 4.747zm-19.814 5.864h-9.783c-1.289 0-2.285-.539-2.285-1.779 0-.566.381-1.051.674-1.375 2.431-2.667 5.067-5.092 7.293-8.056.527-.702 1.025-1.535 1.025-2.507a2.095 2.095 0 00-2.109-2.074c-3.368 0-1.757 4.365-4.569 4.365-1.406 0-2.138-.916-2.138-1.967 0-3.395 3.28-6.117 6.883-6.117s6.503 2.183 6.503 5.605c0 3.745-4.54 7.465-7.03 10.348h5.36c1.289 0 2.285.538 2.285 1.778s-.996 1.779-2.109 1.779z"/></symbol><symbol viewBox="0 0 58 58" id="ic-directory" xmlns="http://www.w3.org/2000/svg"><path fill-rule="evenodd" d="M54.165 57.418H35.389a3 3 0 01-3-3V35.642a3 3 0 013-3h18.776a3 3 0 013 3v18.776a3 3 0 01-3 3zm-.521-19.224a2 2 0 00-2-1.999H37.942a2 2 0 00-2 1.999v13.702a2 2 0 002 2h13.702a2 2 0 002-2V38.194zm.521-12.658H35.389a3 3 0 01-3-3V3.76a3 3 0 013-3h18.776a3 3 0 013 3v18.776a3 3 0 01-3 3zm-.521-19.223a2 2 0 00-2-2H37.942a2 2 0 00-2 2v13.701a2 2 0 002 2h13.702a2 2 0 002-2V6.313zM22.283 57.418H3.507a3 3 0 01-3-3V35.642a3 3 0 013-3h18.776a3 3 0 013 3v18.776a3 3 0 01-3 3zm-.521-19.224a2 2 0 00-2-1.999H6.06a2 2 0 00-2 1.999v13.702a2 2 0 002 2h13.702a2 2 0 002-2V38.194zm.521-12.658H3.507a3 3 0 01-3-3V3.76a3 3 0 013-3h18.776a3 3 0 013 3v18.776a3 3 0 01-3 3zm-.521-19.223a2 2 0 00-2-2H6.06a2 2 0 00-2 2v13.701a2 2 0 002 2h13.702a2 2 0 002-2V6.313z"/></symbol><symbol viewBox="0 0 512 512" id="ic-facebook" xmlns="http://www.w3.org/2000/svg"><path d="M288 176v-64c0-17.664 14.336-32 32-32h32V0h-64c-53.024 0-96 42.976-96 96v80h-64v80h64v256h96V256h64l32-80h-96z"/></symbol><symbol viewBox="0 0 512 512" id="ic-instagram" xmlns="http://www.w3.org/2000/svg"><path d="M352 0H160C71.648 0 0 71.648 0 160v192c0 88.352 71.648 160 160 160h192c88.352 0 160-71.648 160-160V160C512 71.648 440.352 0 352 0zm112 352c0 61.76-50.24 112-112 112H160c-61.76 0-112-50.24-112-112V160C48 98.24 98.24 48 160 48h192c61.76 0 112 50.24 112 112v192z"/><path d="M256 128c-70.688 0-128 57.312-128 128s57.312 128 128 128 128-57.312 128-128-57.312-128-128-128zm0 208c-44.096 0-80-35.904-80-80 0-44.128 35.904-80 80-80s80 35.872 80 80c0 44.096-35.904 80-80 80z"/><circle cx="393.6" cy="118.4" r="17.056"/></symbol><symbol viewBox="0 0 512 512" id="ic-linkedin" xmlns="http://www.w3.org/2000/svg"><path d="M0 160h114.496v352H0zm426.368 4.128c-1.216-.384-2.368-.8-3.648-1.152a74.218 74.218 0 00-4.64-.896c-6.08-1.216-12.736-2.08-20.544-2.08-66.752 0-109.088 48.544-123.04 67.296V160H160v352h114.496V320s86.528-120.512 123.04-32v224H512V274.464c0-53.184-36.448-97.504-85.632-110.336z"/><circle cx="56" cy="56" r="56"/></symbol><symbol viewBox="0 0 57 52" id="ic-message" xmlns="http://www.w3.org/2000/svg"><path fill-rule="evenodd" d="M38.979 13.106H5.578c-2.912 0-5.273 2.368-5.273 5.291v21.16c0 2.922 2.361 5.29 5.273 5.29h3.529l.027 3.828c.506 2.191 2.996 4.815 7.167 2.058l6.593-5.886h16.085c2.912 0 5.274-2.368 5.274-5.29v-21.16c0-2.923-2.362-5.291-5.274-5.291zm1.758 24.578a3.522 3.522 0 01-3.516 3.527H25.74l-4.114.013-7.548 6.849c-1.586 1.002-1.468-1.523-1.468-1.523v-2.649c.04-1.142-.029-2.684-.029-2.684s-1.028-.019-1.571-.006H7.336a3.522 3.522 0 01-3.515-3.527V20.105a3.521 3.521 0 013.515-3.527h29.885a3.521 3.521 0 013.516 3.527v17.579zM51.285.763H19.642c-2.912 0-5.274 2.368-5.274 5.29V9.58h3.516V7.816A3.521 3.521 0 0121.4 4.289h28.127a3.521 3.521 0 013.516 3.527V25.34a3.521 3.521 0 01-3.516 3.527h-1.758v3.526h3.516c2.912 0 5.274-2.367 5.274-5.29V6.053c0-2.922-2.362-5.29-5.274-5.29zM31.948 23.686H12.61c-.971 0-1.758.79-1.758 1.764a1.76 1.76 0 001.758 1.763h19.338a1.76 1.76 0 001.758-1.763c0-.974-.787-1.764-1.758-1.764zm-3.516 7.054H12.61a1.76 1.76 0 00-1.758 1.763 1.76 1.76 0 001.758 1.764h15.822a1.76 1.76 0 001.758-1.764 1.76 1.76 0 00-1.758-1.763z"/></symbol><symbol viewBox="0 0 47 57" id="ic-tablet" xmlns="http://www.w3.org/2000/svg"><path fill-rule="evenodd" d="M34.335 42.687H13.261a1.756 1.756 0 100 3.512h21.074a1.756 1.756 0 100-3.512zM41.36 9.32h-3.512a3.513 3.513 0 00-3.513-3.513h-1.756V4.051A3.512 3.512 0 0029.067.539H18.53a3.512 3.512 0 00-3.513 3.512v1.756h-1.756A3.512 3.512 0 009.749 9.32H6.237a5.268 5.268 0 00-5.269 5.268v36.88a5.269 5.269 0 005.269 5.268H41.36a5.269 5.269 0 005.269-5.268v-36.88A5.268 5.268 0 0041.36 9.32zm-25.464 0h2.634V7.564a3.512 3.512 0 013.512-3.513h3.513a3.513 3.513 0 013.512 3.513V9.32h2.634a2.634 2.634 0 110 5.268H15.896a2.634 2.634 0 110-5.268zm27.22 40.392a3.512 3.512 0 01-3.512 3.512H7.993a3.512 3.512 0 01-3.512-3.512V16.344a3.512 3.512 0 013.512-3.512h1.756v1.756a3.512 3.512 0 003.512 3.513h21.074c2.135 0 2.893-1.828 3.437-3.564.19-.607.076-1.202.076-1.705h1.756a3.512 3.512 0 013.512 3.512v33.368zm-8.781-15.806H13.261a1.756 1.756 0 100 3.512h21.074a1.756 1.756 0 100-3.512zm0-8.781H13.261a1.756 1.756 0 000 3.512h21.074a1.756 1.756 0 100-3.512z"/></symbol><symbol viewBox="0 0 271 24" id="ic-text-logo" xmlns="http://www.w3.org/2000/svg"><path d="M10.887 19l-2.869-4.085c-.355.025-.633.038-.836.038H3.895V19h-1.9V5.7h5.187c1.723 0 3.078.412 4.066 1.235.988.823 1.482 1.957 1.482 3.401 0 1.026-.253 1.9-.76 2.622s-1.229 1.248-2.166 1.577L12.958 19h-2.071zm-3.762-5.662c1.203 0 2.122-.26 2.755-.779.633-.52.95-1.26.95-2.223 0-.963-.317-1.697-.95-2.204-.633-.52-1.552-.779-2.755-.779h-3.23v5.985h3.23zm18.327 4.009V19H15.8V5.7h9.386v1.653H17.7v4.085h6.669v1.615h-6.67v4.294h7.753zM28.528 5.7h1.9V19h-1.9V5.7zM46.741 19l-.019-9.69-4.807 8.075h-.874l-4.807-8.018V19H34.41V5.7h1.558l5.548 9.348L46.988 5.7h1.558l.019 13.3h-1.824zm14.29-3.325h-7.069L52.5 19h-1.957l6.023-13.3h1.882L64.487 19h-1.995l-1.462-3.325zm-.666-1.52l-2.869-6.517-2.869 6.517h5.738zm15.137-1.881h1.824v5.187a7.08 7.08 0 01-2.299 1.254 8.596 8.596 0 01-2.736.437c-1.343 0-2.552-.291-3.629-.874a6.714 6.714 0 01-2.546-2.432c-.608-1.039-.912-2.204-.912-3.496 0-1.292.304-2.457.912-3.496a6.53 6.53 0 012.546-2.432c1.09-.583 2.312-.874 3.667-.874 1.064 0 2.027.177 2.888.532A5.807 5.807 0 0177.44 7.6l-1.178 1.178c-1.064-1.026-2.35-1.539-3.857-1.539-1.013 0-1.925.222-2.736.665a4.737 4.737 0 00-1.881 1.824c-.456.773-.684 1.647-.684 2.622 0 .963.228 1.837.684 2.622a4.911 4.911 0 001.881 1.824c.81.443 1.716.665 2.717.665 1.19 0 2.23-.285 3.116-.855v-4.332zM80.964 5.7h1.9V19h-1.9V5.7zm17.32 0V19h-1.558l-7.98-9.918V19h-1.9V5.7h1.558l7.98 9.918V5.7h1.9zm3.981 0h1.9V19h-1.9V5.7zm17.319 0V19h-1.558l-7.98-9.918V19h-1.9V5.7h1.558l7.98 9.918V5.7h1.9zm13.196 6.574h1.824v5.187a7.073 7.073 0 01-2.299 1.254 8.596 8.596 0 01-2.736.437c-1.342 0-2.552-.291-3.629-.874a6.721 6.721 0 01-2.546-2.432c-.608-1.039-.912-2.204-.912-3.496 0-1.292.304-2.457.912-3.496a6.537 6.537 0 012.546-2.432c1.09-.583 2.312-.874 3.667-.874 1.064 0 2.027.177 2.888.532a5.807 5.807 0 012.223 1.52l-1.178 1.178c-1.064-1.026-2.349-1.539-3.857-1.539-1.013 0-1.925.222-2.736.665a4.737 4.737 0 00-1.881 1.824c-.456.773-.684 1.647-.684 2.622 0 .963.228 1.837.684 2.622a4.911 4.911 0 001.881 1.824c.811.443 1.717.665 2.717.665 1.191 0 2.23-.285 3.116-.855v-4.332zM152.237 19l-2.869-4.085a12.5 12.5 0 01-.836.038h-3.287V19h-1.9V5.7h5.187c1.722 0 3.078.412 4.066 1.235.988.823 1.482 1.957 1.482 3.401 0 1.026-.254 1.9-.76 2.622-.507.722-1.229 1.248-2.166 1.577L154.308 19h-2.071zm-3.762-5.662c1.203 0 2.121-.26 2.755-.779.633-.52.95-1.26.95-2.223 0-.963-.317-1.697-.95-2.204-.634-.52-1.552-.779-2.755-.779h-3.23v5.985h3.23zm18.326 4.009V19h-9.652V5.7h9.386v1.653h-7.486v4.085h6.669v1.615h-6.669v4.294h7.752zm11.551-1.672h-7.068L169.821 19h-1.957l6.023-13.3h1.881L181.81 19h-1.995l-1.463-3.325zm-.665-1.52l-2.869-6.517-2.869 6.517h5.738zm6.107-8.455h1.9v11.647h7.201V19h-9.101V5.7zm26.036 11.647V19h-9.652V5.7h9.386v1.653h-7.486v4.085h6.669v1.615h-6.669v4.294h7.752zm6.952 1.805a9.361 9.361 0 01-2.907-.456c-.925-.317-1.653-.722-2.185-1.216l.703-1.482c.507.456 1.153.83 1.938 1.121a7.383 7.383 0 002.451.418c1.102 0 1.925-.184 2.47-.551.545-.38.817-.88.817-1.501 0-.456-.152-.823-.456-1.102a2.826 2.826 0 00-1.102-.665c-.431-.152-1.045-.323-1.843-.513-1.001-.24-1.811-.481-2.432-.722a4.14 4.14 0 01-1.577-1.102c-.431-.507-.646-1.184-.646-2.033 0-.71.184-1.349.551-1.919.38-.57.95-1.026 1.71-1.368.76-.342 1.704-.513 2.831-.513a8.96 8.96 0 012.318.304c.76.203 1.412.494 1.957.874l-.627 1.52a6.648 6.648 0 00-1.786-.798 6.459 6.459 0 00-1.862-.285c-1.077 0-1.887.196-2.432.589-.532.393-.798.9-.798 1.52 0 .456.152.83.456 1.121.304.279.678.5 1.121.665.456.152 1.07.317 1.843.494 1.001.24 1.805.481 2.413.722a3.98 3.98 0 011.558 1.102c.443.494.665 1.159.665 1.995 0 .697-.19 1.336-.57 1.919-.38.57-.956 1.026-1.729 1.368-.773.33-1.723.494-2.85.494zm10.38-11.799h-4.56V5.7h11.001v1.653h-4.56V19h-1.881V7.353zm16.317 8.322h-7.068L234.948 19h-1.957l6.023-13.3h1.881l6.042 13.3h-1.995l-1.463-3.325zm-.665-1.52l-2.869-6.517-2.869 6.517h5.738zm8.08-6.802h-4.56V5.7h11.001v1.653h-4.56V19h-1.881V7.353zm18.162 9.994V19h-9.652V5.7h9.386v1.653h-7.486v4.085h6.669v1.615h-6.669v4.294h7.752z"/></symbol><symbol viewBox="0 0 512 512" id="ic-twitter" xmlns="http://www.w3.org/2000/svg"><path d="M512 97.248c-19.04 8.352-39.328 13.888-60.48 16.576 21.76-12.992 38.368-33.408 46.176-58.016-20.288 12.096-42.688 20.64-66.56 25.408C411.872 60.704 384.416 48 354.464 48c-58.112 0-104.896 47.168-104.896 104.992 0 8.32.704 16.32 2.432 23.936-87.264-4.256-164.48-46.08-216.352-109.792-9.056 15.712-14.368 33.696-14.368 53.056 0 36.352 18.72 68.576 46.624 87.232-16.864-.32-33.408-5.216-47.424-12.928v1.152c0 51.008 36.384 93.376 84.096 103.136-8.544 2.336-17.856 3.456-27.52 3.456-6.72 0-13.504-.384-19.872-1.792 13.6 41.568 52.192 72.128 98.08 73.12-35.712 27.936-81.056 44.768-130.144 44.768-8.608 0-16.864-.384-25.12-1.44C46.496 446.88 101.6 464 161.024 464c193.152 0 298.752-160 298.752-298.688 0-4.64-.16-9.12-.384-13.568 20.832-14.784 38.336-33.248 52.608-54.496z"/></symbol><symbol viewBox="0 0 39 57" id="ic-voice" xmlns="http://www.w3.org/2000/svg"><path fill-rule="evenodd" d="M21.389 49.581v3.593h1.757a1.757 1.757 0 010 3.514h-7.028a1.757 1.757 0 110-3.514h1.757v-3.593C9.2 48.799 1.856 42.278.305 33.847a1.756 1.756 0 113.514 0c1.599 7.039 8.289 12.299 15.813 12.299 7.524 0 14.213-5.26 15.813-12.299a1.756 1.756 0 113.514 0c-1.551 8.431-8.896 14.952-17.57 15.734zm-1.757-6.949c-6.793 0-12.299-5.506-12.299-12.299v-17.57C7.333 5.971 12.839.464 19.632.464c6.792 0 12.299 5.507 12.299 12.299v17.57c0 6.793-5.507 12.299-12.299 12.299zm8.785-29.869a8.785 8.785 0 00-8.785-8.785 8.785 8.785 0 00-8.785 8.785v17.57a8.785 8.785 0 008.785 8.785 8.785 8.785 0 008.785-8.785v-17.57z"/></symbol><symbol viewBox="0 0 26 26" id="ic-zoom" xmlns="http://www.w3.org/2000/svg"><path fill-rule="evenodd" d="M25.551 25.551a.859.859 0 01-1.214 0l-7.019-7.019A10.352 10.352 0 0110.6 21C4.856 21 .2 16.344.2 10.6.2 4.856 4.856.2 10.6.2 16.344.2 21 4.856 21 10.6a10.35 10.35 0 01-2.468 6.718l7.019 7.019a.859.859 0 010 1.214zM10.6 1.805a8.795 8.795 0 100 17.59 8.795 8.795 0 000-17.59z"/></symbol></svg>